<svg width="120" height="15" viewBox="0 0 120 15" fill="none" xmlns="http://www.w3.org/2000/svg">
<path d="M15.71 13.88V0.207153H27.0626V3.74966H20.5369V5.44841H25.7989V8.7216H20.5369V10.3375H27.3112V13.88H15.71Z" fill="white"/>
<path d="M43.4486 13.88H37.6273L35.8249 10.3375L34.1676 13.88H28.7192L33.2561 7.06429L28.8849 0.207153H34.5819L36.1771 3.62536L37.793 0.207153H43.055L38.7045 6.93999L43.4486 13.88Z" fill="white"/>
<path d="M51.3231 0C53.9058 0 56.005 0.649114 57.6209 1.94734L55.6736 5.05481C55.0244 4.59905 54.3408 4.23306 53.6226 3.95684C52.9183 3.68062 52.1518 3.54251 51.3231 3.54251C50.7845 3.54251 50.4047 3.60466 50.1837 3.72896C49.9765 3.83944 49.873 3.99136 49.873 4.18472C49.873 4.35045 49.9973 4.47475 50.2459 4.55761C50.5083 4.64048 50.8328 4.73025 51.2195 4.82693L53.1047 5.26197C54.4996 5.57962 55.5493 6.0492 56.2536 6.67069C56.9718 7.29218 57.3309 8.15537 57.3309 9.26024C57.3309 10.3651 57.0616 11.2766 56.5229 11.9948C55.9843 12.6992 55.2523 13.224 54.327 13.5693C53.4155 13.9145 52.3797 14.0872 51.2195 14.0872C50.3494 14.0872 49.4794 14.0112 48.6093 13.8593C47.7392 13.6936 46.9312 13.4588 46.1854 13.1549C45.4396 12.8373 44.7974 12.4575 44.2588 12.0155L46.1647 8.84591C46.5652 9.16356 47.0486 9.4536 47.6149 9.716C48.1811 9.9646 48.7681 10.1649 49.3758 10.3168C49.9835 10.4687 50.5497 10.5447 51.0745 10.5447C51.5717 10.5447 51.9101 10.4894 52.0896 10.3789C52.283 10.2546 52.3797 10.1027 52.3797 9.92317C52.3797 9.72981 52.2968 9.5848 52.1311 9.48812C51.9791 9.39145 51.696 9.29477 51.2817 9.19809L49.21 8.74233C48.4781 8.5766 47.7806 8.35562 47.1177 8.07941C46.4548 7.80319 45.9161 7.40267 45.5018 6.87785C45.0875 6.33923 44.8803 5.61415 44.8803 4.70263C44.8803 3.76348 45.1289 2.94173 45.6261 2.23737C46.1371 1.53302 46.8691 0.987482 47.822 0.600776C48.7888 0.200259 49.9558 0 51.3231 0Z" fill="white"/>
<path d="M67.0559 0.207153C68.9066 0.207153 70.3222 0.621482 71.3028 1.45014C72.2972 2.2788 72.7944 3.47344 72.7944 5.03408C72.7944 6.58091 72.2972 7.77555 71.3028 8.61802C70.3222 9.44668 68.9066 9.86101 67.0559 9.86101H64.6321V13.88H59.8052V0.207153H67.0559ZM66.2687 6.4428C66.7935 6.4428 67.2079 6.33231 67.5117 6.11133C67.8155 5.87655 67.9675 5.51746 67.9675 5.03408C67.9675 4.5507 67.8155 4.19852 67.5117 3.97754C67.2079 3.74276 66.7935 3.62536 66.2687 3.62536H64.6321V6.4428H66.2687Z" fill="white"/>
<path d="M81.9934 0C84.1755 0 85.8743 0.614587 87.0897 1.84376C88.3188 3.07294 88.9334 4.80621 88.9334 7.04358C88.9334 9.28096 88.3188 11.0142 87.0897 12.2434C85.8743 13.4726 84.1755 14.0872 81.9934 14.0872C80.5571 14.0872 79.3141 13.811 78.2645 13.2585C77.2286 12.7061 76.4276 11.905 75.8614 10.8554C75.3089 9.80577 75.0327 8.53517 75.0327 7.04358C75.0327 5.552 75.3089 4.28139 75.8614 3.23176C76.4276 2.18213 77.2286 1.38109 78.2645 0.828656C79.3141 0.276219 80.5571 0 81.9934 0ZM81.9934 3.62537C81.2891 3.62537 80.7712 3.90159 80.4397 4.45403C80.122 4.99266 79.9632 5.85584 79.9632 7.04358C79.9632 8.23133 80.122 9.10142 80.4397 9.65385C80.7712 10.1925 81.2891 10.4618 81.9934 10.4618C82.6978 10.4618 83.2088 10.1925 83.5264 9.65385C83.8441 9.10142 84.0029 8.23133 84.0029 7.04358C84.0029 5.85584 83.8441 4.99266 83.5264 4.45403C83.2088 3.90159 82.6978 3.62537 81.9934 3.62537Z" fill="white"/>
<path d="M99.0127 0.207153C100.794 0.207153 102.161 0.60767 103.114 1.40871C104.067 2.19593 104.544 3.24556 104.544 4.5576C104.544 6.61543 103.687 7.97581 101.975 8.63874L105.31 13.88H100.069L97.6454 9.3431H96.3195V13.88H91.5962V0.207153H99.0127ZM98.184 6.17348C98.695 6.17348 99.0748 6.08371 99.3234 5.90417C99.5858 5.71082 99.717 5.37935 99.717 4.90978C99.717 4.45402 99.5858 4.12946 99.3234 3.93611C99.0748 3.74276 98.695 3.64608 98.184 3.64608H96.3195V6.17348H98.184Z" fill="white"/>
<path d="M120 0.207153V3.74966H115.732V13.88H110.905V3.74966H106.617V0.207153H120Z" fill="white"/>
<path fill-rule="evenodd" clip-rule="evenodd" d="M11.5598 1.98864C10.4687 0.800902 8.85282 0.207031 6.71212 0.207031H0V13.8799H6.71212C8.85282 13.8799 10.4687 13.286 11.5598 12.0983C12.6508 10.8967 13.1964 9.21177 13.1964 7.04345C13.1964 4.86132 12.6508 3.17639 11.5598 1.98864ZM9.49484 7.42882L4.15879 11.2904L5.41433 7.88313L2.58936 6.52021L7.92541 2.65859L6.66987 6.0659L9.49484 7.42882Z" fill="white"/>
</svg>
